HIERARCHY
ROOT Hips
{
	OFFSET 52.550098 -10.502015 96.230301
	CHANNELS 6 Xposition Yposition Zposition Xrotation Yrotation Zrotation
	JOINT spine
	{
		OFFSET 0.000000 -0.467661 8.132492
		CHANNELS 3 Xrotation Yrotation Zrotation
		JOINT spine1
		{
			OFFSET 0.000000 -0.000002 10.349800
			CHANNELS 3 Xrotation Yrotation Zrotation
			JOINT spine2
			{
				OFFSET 0.000000 -0.000001 9.916992
				CHANNELS 3 Xrotation Yrotation Zrotation
				JOINT Neck
				{
					OFFSET 0.000000 -1.213904 25.461006
					CHANNELS 3 Xrotation Yrotation Zrotation
					JOINT Head
					{
						OFFSET 0.000000 -0.000001 7.692444
						CHANNELS 3 Xrotation Yrotation Zrotation
						End Site
						{
							OFFSET 0.000000 6.140627 18.619995
						}
					}
				}
				JOINT RightShoulder
				{
					OFFSET -4.175751 0.581443 10.709602
					CHANNELS 3 Xrotation Yrotation Zrotation
					JOINT RightArm
					{
						OFFSET 0.000000 -0.000003 14.046600
						CHANNELS 3 Xrotation Yrotation Zrotation
						JOINT RightArmRoll
						{
							OFFSET 0.000000 -0.000001 7.090988
							CHANNELS 3 Xrotation Yrotation Zrotation
							JOINT RightForeArm
							{
								OFFSET 0.000000 -0.000003 20.653503
								CHANNELS 3 Xrotation Yrotation Zrotation
								JOINT RightForeArmRoll
								{
									OFFSET 0.000000 -0.000002 7.957184
									CHANNELS 3 Xrotation Yrotation Zrotation
									JOINT RightHand
									{
										OFFSET 0.000000 -0.000002 15.968292
										CHANNELS 3 Xrotation Yrotation Zrotation
										End Site
										{
											OFFSET 0.000000 0.000000 0.100006
										}
									}
								}
							}
						}
					}
				}
				JOINT LeftShoulder
				{
					OFFSET 4.175751 0.581443 10.709602
					CHANNELS 3 Xrotation Yrotation Zrotation
					JOINT LeftArm
					{
						OFFSET 0.000000 -0.000003 14.046600
						CHANNELS 3 Xrotation Yrotation Zrotation
						JOINT LeftArmRoll
						{
							OFFSET 0.000000 -0.000001 7.090973
							CHANNELS 3 Xrotation Yrotation Zrotation
							JOINT LeftForeArm
							{
								OFFSET 0.000000 -0.000003 20.653503
								CHANNELS 3 Xrotation Yrotation Zrotation
								JOINT LeftForeArmRoll
								{
									OFFSET 0.000000 -0.000002 7.957184
									CHANNELS 3 Xrotation Yrotation Zrotation
									JOINT LeftHand
									{
										OFFSET 0.000000 -0.000002 15.968307
										CHANNELS 3 Xrotation Yrotation Zrotation
										End Site
										{
											OFFSET 0.000000 0.000000 0.100006
										}
									}
								}
							}
						}
					}
				}
			}
		}
	}
	JOINT RightUpLeg
	{
		OFFSET -7.208340 1.108840 -1.321823
		CHANNELS 3 Xrotation Yrotation Zrotation
		JOINT RightUpLegRoll
		{
			OFFSET 0.000000 -0.000003 18.723801
			CHANNELS 3 Xrotation Yrotation Zrotation
			JOINT RightLeg
			{
				OFFSET 0.000000 0.000004 -23.186600
				CHANNELS 3 Xrotation Yrotation Zrotation
				JOINT RightLegRoll
				{
					OFFSET 0.000000 -0.000004 23.262398
					CHANNELS 3 Xrotation Yrotation Zrotation
					JOINT RightFoot
					{
						OFFSET 0.000000 -0.000004 19.362099
						CHANNELS 3 Xrotation Yrotation Zrotation
						JOINT RightToeBase
						{
							OFFSET 0.000000 -0.000002 16.185699
							CHANNELS 3 Xrotation Yrotation Zrotation
							End Site
							{
								OFFSET 0.006859 0.903521 7.838623
							}
						}
					}
				}
			}
		}
	}
	JOINT LeftUpLeg
	{
		OFFSET 7.208340 1.108840 -1.321823
		CHANNELS 3 Xrotation Yrotation Zrotation
		JOINT LeftUpLegRoll
		{
			OFFSET 0.000000 -0.000003 18.723900
			CHANNELS 3 Xrotation Yrotation Zrotation
			JOINT LeftLeg
			{
				OFFSET 0.000000 -0.000004 23.186501
				CHANNELS 3 Xrotation Yrotation Zrotation
				JOINT LeftLegRoll
				{
					OFFSET 0.000000 -0.000004 23.477509
					CHANNELS 3 Xrotation Yrotation Zrotation
					JOINT LeftFoot
					{
						OFFSET 0.000000 -0.000004 19.147003
						CHANNELS 3 Xrotation Yrotation Zrotation
						JOINT LeftToeBase
						{
							OFFSET 0.000000 -0.000002 16.185699
							CHANNELS 3 Xrotation Yrotation Zrotation
							End Site
							{
								OFFSET -0.030746 0.903521 7.838623
							}
						}
					}
				}
			}
		}
	}
}
MOTION
Frames: 6
Frame Time: 0.041667
52.452900 -10.617722 96.322395 -5.907864 -0.131815 0.836507 -1.479037 -0.276369 0.105176 1.046691 -0.554782 0.188395 2.691785 -0.552469 0.195006 13.275185 4.758363 -5.920709 -6.324311 1.494384 -6.185585 -18.295119 -60.037984 -21.626904 -46.423317 -131.553036 -92.764549 0.000001 -0.000001 -0.000003 111.395153 5.572314 -20.121464 0.000001 0.000009 -3.000002 -5.000230 -7.999062 0.000140 -10.148425 60.762825 12.085874 -51.791610 143.165942 78.321533 0.000004 0.000015 0.000005 95.894756 -3.879958 8.234841 -0.000002 0.000025 3.001631 -5.000193 7.999000 -0.000115 2.390552 -172.287629 5.254024 179.999991 -0.000005 -1.079998 170.316928 -2.469350 -0.585207 -0.000002 0.000001 0.047637 69.676884 6.421145 3.323668 25.457659 -7.355616 0.001150 3.509266 173.885387 -1.790872 -0.000020 -0.000005 -1.077970 -10.007840 0.898606 0.551387 0.000001 0.000001 -0.153530 71.643610 -6.336505 -3.475535 25.459173 7.355613 -0.003287 
52.449200 -10.610623 96.305695 -5.920104 -0.131304 0.834028 -1.478296 -0.276311 0.105168 1.048900 -0.555291 0.188909 2.694005 -0.552963 0.195514 13.296637 4.751967 -5.924971 -6.338619 1.512829 -6.189262 -18.290074 -60.035116 -21.620986 -46.414178 -131.569483 -93.229179 -0.000000 -0.000000 -0.000005 111.217459 5.619991 -20.111446 0.000002 0.000010 -3.000001 -5.000236 -7.999063 0.000141 -10.108392 60.763344 12.039095 -51.743365 143.233274 78.561266 0.000003 0.000016 0.000003 95.833346 -3.922286 8.252916 0.000000 0.000026 3.001631 -5.000194 7.999004 -0.000116 2.414114 -172.284774 5.265111 179.999991 -0.000006 -1.080995 170.335342 -2.477377 -0.583748 -0.000002 0.000001 0.047667 69.668708 6.424353 3.315420 25.457662 -7.355615 0.001151 3.531507 173.886562 -1.794309 -0.000020 -0.000005 -1.078560 -9.993549 0.898649 0.550716 0.000000 0.000001 -0.153554 71.639730 -6.338206 -3.469031 25.459173 7.355613 -0.003287 
52.449600 -10.619119 96.326286 -5.932978 -0.130909 0.831380 -1.477406 -0.276257 0.105169 1.051480 -0.555968 0.189631 2.696576 -0.553622 0.196231 13.318512 4.741475 -5.928249 -6.353969 1.538615 -6.192080 -18.285501 -60.031455 -21.615614 -46.405791 -131.586285 -93.694773 0.000000 -0.000001 -0.000003 111.040400 5.666870 -20.100186 0.000001 0.000009 -2.999999 -5.000228 -7.999061 0.000146 -10.066593 60.764102 11.990255 -51.697791 143.301166 78.800958 0.000003 0.000014 0.000004 95.770816 -3.963784 8.268873 -0.000002 0.000027 3.001631 -5.000193 7.999002 -0.000115 2.437482 -172.281919 5.275624 179.999991 -0.000005 -1.082006 170.352076 -2.485392 -0.583368 -0.000002 0.000001 0.047696 69.661407 6.427269 3.307966 25.457662 -7.355617 0.001151 3.553938 173.887696 -1.797836 -0.000020 -0.000005 -1.079110 -9.980499 0.898736 0.550114 0.000000 0.000001 -0.153604 71.636650 -6.339753 -3.462655 25.459173 7.355612 -0.003287 
52.452999 -10.619019 96.327393 -5.946277 -0.130618 0.828542 -1.476415 -0.276196 0.105175 1.054291 -0.556755 0.190513 2.699396 -0.554388 0.197108 13.340719 4.727443 -5.930701 -6.370201 1.570569 -6.194193 -18.281355 -60.027418 -21.610746 -46.400088 -131.602268 -94.162832 -0.000000 0.000001 -0.000005 110.862324 5.713332 -20.085652 0.000001 0.000007 -3.000001 -5.000233 -7.999065 0.000146 -10.023595 60.764915 11.940036 -51.653818 143.370930 79.038601 0.000000 0.000016 0.000004 95.707015 -4.004167 8.284671 -0.000002 0.000026 3.001620 -5.000192 7.998999 -0.000116 2.460418 -172.279050 5.285564 179.999991 -0.000006 -1.083003 170.367184 -2.492400 -0.582885 -0.000002 0.000001 0.047725 69.654932 6.429856 3.301306 25.457664 -7.355617 0.001151 3.576322 173.889827 -1.801325 -0.000020 -0.000005 -1.079620 -9.968638 0.898857 0.549574 0.000001 0.000000 -0.153675 71.634163 -6.341205 -3.456632 25.459172 7.355613 -0.003287 
52.452702 -10.617818 96.327393 -5.959802 -0.130420 0.825497 -1.475397 -0.276117 0.105183 1.057210 -0.557591 0.191500 2.702307 -0.555202 0.198091 13.363366 4.710407 -5.932502 -6.387153 1.607496 -6.195710 -18.277344 -60.023074 -21.606055 -46.395136 -131.619753 -94.629874 -0.000001 -0.000003 -0.000006 110.681966 5.758962 -20.066696 0.000004 0.000007 -2.999999 -5.000231 -7.999062 0.000145 -9.980132 60.765775 11.889278 -51.612010 143.441950 79.275055 0.000000 0.000014 0.000003 95.641479 -4.043502 8.298317 -0.000004 0.000029 3.001621 -5.000194 7.999002 -0.000116 2.482705 -172.276168 5.294936 179.999991 -0.000007 -1.083003 170.380681 -2.498412 -0.582302 -0.000002 0.000001 0.047753 69.649215 6.432141 3.295450 25.457660 -7.355615 0.001151 3.598449 173.890961 -1.804839 -0.000020 -0.000005 -1.080090 -9.957927 0.899000 0.549093 0.000001 0.000001 -0.153765 71.632360 -6.342498 -3.450746 25.459173 7.355613 -0.003287 
52.452801 -10.621219 96.334885 -5.973345 -0.130303 0.822223 -1.474386 -0.276009 0.105190 1.060112 -0.558417 0.192544 2.705207 -0.556006 0.199128 13.386467 4.690900 -5.933810 -6.404667 1.648235 -6.196781 -18.273350 -60.018703 -21.601371 -46.391946 -131.638154 -95.096539 0.000001 -0.000003 -0.000004 110.497878 5.802960 -20.042101 0.000001 0.000005 -3.000001 -5.000233 -7.999056 0.000143 -9.936844 60.766595 11.838722 -51.572549 143.514323 79.510027 0.000001 0.000016 0.000004 95.574093 -4.081632 8.309779 -0.000003 0.000026 3.001621 -5.000195 7.999000 -0.000115 2.504127 -172.273299 5.303764 179.999991 -0.000005 -1.084001 170.392579 -2.504426 -0.581788 -0.000002 0.000001 0.047783 69.644270 6.434194 3.290006 25.457664 -7.355616 0.001152 3.620088 173.893119 -1.808215 -0.000020 -0.000004 -1.080521 -9.948324 0.899154 0.548662 0.000001 0.000001 -0.153869 71.631179 -6.343663 -3.445201 25.459173 7.355613 -0.003286 
